name C:\Users\u0101727\Documents\MyRepositories\paper-ad\predictivesimulations_2d/Results/PredSim_2D/IK_c11.mot
datacolumns 11
datarows 21
range 0.00000000 0.19187465
endheader
time	pelvis_tilt	pelvis_tx	pelvis_ty	hip_flexion_l	hip_flexion_r	knee_angle_l	knee_angle_r	ankle_angle_l	ankle_angle_r	lumbar_extension	
          0.00000000	        -15.16864812	          0.00000000	          0.88359894	          0.99182191	         38.10206504	        -16.23314604	        -10.56533501	          5.77145882	         13.84204751	          9.68038057	
          0.00959373	        -15.13059514	          0.01477807	          0.88281198	          0.89802489	         37.61756282	        -17.72672072	         -9.96016589	          4.57120329	         13.39397290	          9.77726903	
          0.01918747	        -15.08149847	          0.02981959	          0.88197404	          0.88297480	         37.03789581	        -19.38780075	         -9.64107723	          3.26713616	         12.89379072	          9.88720315	
          0.02878120	        -15.02391472	          0.04510755	          0.88110852	          0.95390955	         36.29498367	        -21.21327470	         -9.72864034	          1.83926849	         12.33942545	         10.01415575	
          0.03837493	        -14.96605615	          0.06045603	          0.88034239	          1.11545964	         35.43198419	        -23.18454979	        -10.04316041	          0.37294133	         11.77021050	         10.14869837	
          0.04796866	        -14.91889832	          0.07552429	          0.87990525	          1.39447587	         34.57410467	        -25.20918580	        -10.32367413	         -0.91035884	         11.22008860	         10.26758761	
          0.05756240	        -14.89100179	          0.09006524	          0.88005893	          1.81922392	         33.75858339	        -27.14697633	        -10.58230842	         -1.91262161	         10.68893775	         10.35690988	
          0.06715613	        -14.88470497	          0.10401592	          0.88095921	          2.38560742	         32.98786396	        -28.93529280	        -10.81392304	         -2.66319916	         10.19141350	         10.41552408	
          0.07674986	        -14.89531632	          0.11745963	          0.88256520	          3.07683918	         32.24340936	        -30.59486337	        -11.00651649	         -3.17153236	          9.74380386	         10.44957269	
          0.08634359	        -14.91624420	          0.13052059	          0.88466705	          3.87237662	         31.50409564	        -32.15479508	        -11.15115410	         -3.45036979	          9.35759723	         10.46608005	
          0.09593733	        -14.94212533	          0.14330629	          0.88703209	          4.75666714	         30.75311378	        -33.63266331	        -11.24100986	         -3.51526743	          9.03906488	         10.47035776	
          0.10553106	        -14.96952161	          0.15589096	          0.88947760	          5.71768633	         29.98101705	        -35.03692827	        -11.27416239	         -3.38124807	          8.78982246	         10.46559876	
          0.11512479	        -14.99653923	          0.16832156	          0.89187998	          6.74642921	         29.18327691	        -36.36891488	        -11.25104410	         -3.06461293	          8.60884098	         10.45355949	
          0.12471852	        -15.02221672	          0.18062816	          0.89416001	          7.83549618	         28.35834561	        -37.62552702	        -11.17365804	         -2.58209564	          8.49347794	         10.43525000	
          0.13431226	        -15.04606443	          0.19283106	          0.89626730	          8.97871075	         27.50659934	        -38.80188182	        -11.04548600	         -1.95055637	          8.43998678	         10.41128567	
          0.14390599	        -15.06781471	          0.20494535	          0.89816943	         10.17051796	         26.62968913	        -39.89188921	        -10.87138307	         -1.18693838	          8.44382031	         10.38211850	
          0.15349972	        -15.08729544	          0.21698341	          0.89984545	         11.40556582	         25.73021438	        -40.88876209	        -10.65738258	         -0.30840811	          8.49983304	         10.34815474	
          0.16309345	        -15.10438248	          0.22895619	          0.90128272	         12.67842482	         24.81148113	        -41.78533689	        -10.41051414	          0.66764390	          8.60244298	         10.30981188	
          0.17268719	        -15.11898734	          0.24087315	          0.90247636	         13.98373357	         23.87747206	        -42.57402406	        -10.13880122	          1.72365486	          8.74583505	         10.26748041	
          0.18228092	        -15.13109641	          0.25274190	          0.90342966	         15.31648429	         22.93261170	        -43.24664102	         -9.85002175	          2.84196191	          8.92413945	         10.22148032	
          0.19187465	        -15.14083468	          0.26456975	          0.90415324	         16.67068487	         21.98078755	        -43.79567682	         -9.55122783	          4.00475834	          9.13085377	         10.17228971	
